<svg version="1.1" id="Layer_1" xmlns="http://www.w3.org/2000/svg" xmlns:xlink="http://www.w3.org/1999/xlink" x="0px" y="0px"
	 width="100%" viewBox="0 0 368 368" enable-background="new 0 0 368 368" xml:space="preserve">
<path fill="#000000" opacity="1.000000" stroke="none" 
	d="
M120.747314,155.267715 
	C144.126282,180.789764 167.262024,206.054810 190.667572,231.614471 
	C198.925476,224.129135 205.555054,216.007309 212.627243,208.331696 
	C236.436905,182.490616 260.103241,156.517471 283.833466,130.603149 
	C293.055695,120.532173 302.331757,110.510338 311.522797,100.411079 
	C315.230042,96.337517 319.718018,94.706726 325.019318,96.040962 
	C329.815796,97.248154 332.593018,100.635330 333.756866,105.388428 
	C334.864838,109.913368 333.078125,113.539055 330.144867,116.758217 
	C316.687012,131.527802 303.221710,146.290619 289.734589,161.033478 
	C262.199249,191.132584 234.650543,221.219513 207.098938,251.303772 
	C204.961868,253.637314 202.816406,255.968216 200.575760,258.200928 
	C194.410202,264.344513 187.298386,264.436127 181.355911,258.117096 
	C171.657806,247.804413 162.161530,237.301758 152.593536,226.866898 
	C120.288284,191.634872 87.988045,156.398239 55.689983,121.159607 
	C54.114933,119.441154 52.464249,117.775269 51.045670,115.933266 
	C46.555164,110.102409 46.931713,103.261330 51.879929,98.826469 
	C57.090244,94.156700 64.749458,94.448036 69.828468,99.799240 
	C76.592438,106.925705 83.171463,114.228065 89.811028,121.472191 
	C100.050476,132.643967 110.273880,143.830460 120.747314,155.267715 
z"/>
</svg>